<?xml version="1.0" standalone="no"?>
<!DOCTYPE svg PUBLIC "-//W3C//DTD SVG 20010904//EN"
 "http://www.w3.org/TR/2001/REC-SVG-20010904/DTD/svg10.dtd">
<svg version="1.0" xmlns="http://www.w3.org/2000/svg"
 width="16.000000pt" height="16.000000pt" viewBox="0 0 16.000000 16.000000"
 preserveAspectRatio="xMidYMid meet">
<metadata>
Created by potrace 1.11, written by Peter Selinger 2001-2013
</metadata>
<g transform="translate(0.000000,16.000000) scale(0.002286,-0.002286)"
fill="#000000" stroke="none">
<path d="M3945 6548 c-169 -30 -304 -70 -429 -127 -257 -120 -472 -303 -628
-535 -100 -150 -157 -275 -204 -444 -27 -98 -28 -103 -39 -172 -3 -25 -9 -58
-12 -75 -17 -104 4 -403 36 -525 6 -19 14 -51 19 -70 52 -196 200 -452 353
-615 21 -22 36 -41 34 -44 -3 -3 -723 -5 -772 -2 -7 1 16 40 52 88 96 127 190
311 221 433 29 117 35 149 43 250 17 206 -11 393 -89 586 -286 714 -1113 1031
-1800 690 -251 -125 -464 -336 -589 -585 -59 -116 -91 -217 -127 -396 -12 -60
-11 -292 2 -380 40 -276 170 -532 371 -732 35 -34 63 -64 63 -66 0 -3 -29 -23
-64 -46 -137 -90 -266 -250 -326 -406 -59 -155 -58 -131 -58 -1195 l-1 -975
24 -91 c22 -88 59 -181 101 -253 17 -30 110 -149 139 -176 25 -24 113 -93 150
-116 52 -33 167 -86 205 -94 8 -1 33 -8 55 -14 22 -5 69 -13 105 -17 85 -9
3616 -9 3697 0 288 33 556 223 685 488 60 124 79 215 87 414 l6 181 650 -543
c720 -601 662 -562 774 -528 83 24 131 53 192 115 62 63 81 95 110 184 18 58
19 111 18 1420 0 827 -4 1380 -9 1410 -36 184 -207 338 -385 347 l-50 2 -648
-433 c-357 -238 -650 -431 -652 -429 -2 2 -6 32 -10 68 -20 198 -115 400 -249
530 -25 25 -46 47 -46 50 0 3 40 34 90 69 94 66 240 202 307 286 314 391 414
887 280 1381 -44 161 -132 336 -242 486 -175 236 -443 436 -710 529 -88 30
-194 59 -240 65 -16 2 -55 8 -85 13 -69 11 -338 10 -405 -1z m363 -432 c17 -3
44 -8 60 -11 66 -11 146 -37 228 -73 335 -144 580 -460 642 -825 9 -57 9 -301
-1 -357 -62 -349 -282 -643 -602 -803 -79 -39 -209 -82 -276 -92 -24 -3 -56
-8 -71 -11 -39 -8 -237 -7 -278 1 -19 4 -44 8 -55 9 -51 7 -185 50 -253 81
-336 156 -579 479 -629 836 -10 69 -10 247 -1 319 10 77 54 223 90 300 121
257 320 447 588 558 42 17 87 33 100 36 14 3 43 10 66 15 22 6 60 13 84 16 24
3 45 7 46 8 6 6 229 0 262 -7z m-2853 -440 c190 -36 346 -117 475 -248 91 -91
161 -202 211 -333 46 -124 57 -329 25 -470 -74 -321 -319 -576 -636 -661 -69
-18 -283 -25 -370 -12 -161 25 -338 117 -461 240 -193 192 -287 460 -254 730
5 44 7 51 25 126 12 49 71 185 82 190 4 2 8 8 8 14 0 22 90 136 157 198 129
123 278 195 468 227 17 3 31 6 32 7 6 5 202 -2 238 -8z m3032 -2195 c160 -41
289 -182 319 -343 6 -38 7 -1863 0 -1893 -14 -63 -21 -85 -43 -128 -64 -127
-186 -216 -323 -234 -25 -4 -850 -7 -1835 -7 -1646 0 -1794 1 -1846 17 -77 23
-139 59 -194 115 -62 62 -101 139 -122 242 -8 38 -7 1818 1 1873 23 162 143
305 297 352 30 9 59 18 64 20 6 2 820 4 1811 4 1718 1 1804 0 1871 -18z m2077
-1296 c1 -718 -1 -1305 -4 -1305 -3 0 -44 33 -91 73 -47 40 -108 90 -134 112
-27 22 -67 56 -90 75 -64 54 -129 108 -265 221 -69 57 -127 105 -130 108 -3 4
-26 23 -52 44 -26 21 -53 43 -60 50 -7 7 -33 28 -58 47 -24 19 -54 44 -66 55
-12 11 -99 83 -193 160 l-170 140 0 330 -1 330 653 436 c358 239 654 434 656
432 2 -1 5 -590 5 -1308z"/>
</g>
</svg>
